<svg width="172" height="61" viewBox="0 0 172 61" fill="none" xmlns="http://www.w3.org/2000/svg">
<path d="M171.841 52.207C171.841 56.6327 168.421 60.4554 164.196 60.4554H8.48544C4.26045 60.4588 0.84082 56.8376 0.84082 52.207V8.3539C0.84082 3.72665 4.26045 0.105469 8.48544 0.105469H164.398C168.421 0.105469 171.841 3.72665 171.841 8.3539V52.207Z" fill="#222222"/>
<path d="M13.7166 13.1821V51.003L32.8285 32.0926L13.7166 13.1821Z" fill="url(#paint0_linear_3_1285)"/>
<path d="M37.858 26.864L30.2134 22.4383L13.7166 12.9814V13.183L32.8285 32.0934L37.858 26.864Z" fill="url(#paint1_linear_3_1285)"/>
<path d="M13.7166 51.0027L30.2134 41.5475L37.858 37.1218L32.8285 32.0923L13.7166 51.0027Z" fill="url(#paint2_linear_3_1285)"/>
<path d="M37.8581 26.8623L32.8286 32.0925L37.8581 37.122L46.7112 32.0925L37.8581 26.8623Z" fill="url(#paint3_linear_3_1285)"/>
<path d="M134.02 39.3348C133.331 39.3183 132.65 39.1821 132.008 38.9326C131.411 38.7089 130.912 38.2815 130.6 37.7258H130.398C130.398 38.3296 130.6 38.9326 130.6 39.5364V44.1636H128.99V28.2739H130.399L130.6 29.6823C130.962 29.169 131.446 28.7542 132.009 28.4755C132.651 28.2259 133.332 28.0898 134.021 28.0732C134.66 28.0271 135.301 28.13 135.894 28.3736C136.487 28.6173 137.015 28.9951 137.437 29.4774C138.31 30.7066 138.736 32.1975 138.644 33.7024C138.736 35.2069 138.31 36.6976 137.437 37.9265C137.003 38.3944 136.473 38.7626 135.883 39.0057C135.293 39.2488 134.658 39.3611 134.02 39.3348ZM133.618 29.4774C133.164 29.4306 132.705 29.4978 132.283 29.6731C131.862 29.8483 131.491 30.126 131.203 30.4809C130.645 31.3862 130.366 32.4354 130.399 33.4983V33.9006C130.399 35.5096 130.6 36.5157 131.203 37.3202C131.517 37.6416 131.893 37.8962 132.308 38.0687C132.723 38.2412 133.168 38.3279 133.618 38.3238C134.06 38.3342 134.497 38.2282 134.886 38.0164C135.274 37.8046 135.6 37.4944 135.831 37.117C136.45 36.1636 136.733 35.0307 136.635 33.8981C136.733 32.7654 136.45 31.6325 135.831 30.6791C135.617 30.2863 135.295 29.9636 134.902 29.7503C134.509 29.537 134.063 29.4422 133.618 29.4774Z" fill="#F9F9F9"/>
<path d="M142.267 39.1334H140.658V23.4419H142.267V39.1334Z" fill="#F9F9F9"/>
<path d="M151.924 39.1341L151.522 37.5251C150.918 38.1289 150.518 38.7319 149.913 38.9334C149.271 39.183 148.59 39.3191 147.901 39.3357C146.958 39.4105 146.023 39.1227 145.286 38.5312C144.964 38.2172 144.71 37.8414 144.537 37.4265C144.365 37.0116 144.278 36.5661 144.282 36.1168C144.282 33.9039 146.093 32.6971 149.714 32.6971H151.522V32.0933C151.538 31.3757 151.327 30.6713 150.918 30.0812C150.672 29.8649 150.385 29.7001 150.074 29.5964C149.763 29.4927 149.434 29.4523 149.108 29.4774C148.046 29.4582 147.001 29.737 146.09 30.2819L145.688 28.8736C146.258 28.5828 146.868 28.3793 147.499 28.2698C148.154 28.093 148.833 28.0249 149.511 28.0682C150.58 27.9673 151.651 28.2527 152.528 28.8727C153.216 29.6455 153.576 30.6558 153.532 31.6894V39.1325L151.924 39.1341ZM148.102 38.1306C148.538 38.1684 148.977 38.1165 149.392 37.9781C149.807 37.8398 150.19 37.6178 150.516 37.3261C150.808 36.9998 151.03 36.6173 151.168 36.2021C151.306 35.7869 151.358 35.3477 151.32 34.9117V33.9081H149.711C148.733 33.8207 147.751 34.0312 146.895 34.5119C146.663 34.6828 146.472 34.9022 146.333 35.1547C146.195 35.4071 146.114 35.6867 146.094 35.9739C146.075 36.2611 146.119 36.549 146.222 36.8176C146.326 37.0862 146.486 37.3291 146.693 37.5293C146.871 37.7251 147.089 37.8801 147.332 37.9835C147.575 38.0868 147.838 38.1362 148.102 38.1281L148.102 38.1306Z" fill="#F9F9F9"/>
<path d="M154.137 28.2707H155.948L158.362 34.5086C158.76 35.4924 159.095 36.5002 159.366 37.526C159.439 36.8871 159.645 36.2705 159.97 35.7154C160.171 34.9109 161.176 32.2958 162.786 28.0708H164.597L159.771 40.7433C159.503 41.7544 158.944 42.6642 158.161 43.3584C157.865 43.6335 157.517 43.8465 157.137 43.9847C156.756 44.1229 156.353 44.1835 155.949 44.1629C155.47 44.2103 154.987 44.1411 154.54 43.9613V42.5538C154.943 42.5538 155.345 42.7554 155.747 42.7554C156.327 42.7765 156.894 42.5828 157.339 42.2114C157.785 41.8401 158.078 41.3172 158.161 40.7433L158.765 39.1342L154.137 28.2707Z" fill="#F9F9F9"/>
<path d="M103.038 29.2768C103.532 29.6105 103.937 30.0599 104.217 30.5858C104.498 31.1117 104.645 31.6982 104.647 32.2941C104.647 33.9032 103.644 34.7085 102.635 35.5131C102.458 35.6631 102.314 35.8474 102.21 36.0547C102.106 36.2621 102.045 36.4884 102.031 36.7198C102.043 36.9236 102.104 37.1215 102.209 37.2964C102.314 37.4713 102.46 37.6179 102.635 37.7234L103.44 38.3272C104.443 39.1317 105.452 39.9363 105.452 41.5461C105.452 43.759 103.44 45.9718 99.4162 45.9718C95.9966 45.9718 94.3867 44.3628 94.3867 42.7529C94.4095 42.1645 94.5895 41.593 94.9079 41.0977C95.2263 40.6024 95.6715 40.2013 96.1973 39.9363C97.5752 39.2642 99.09 38.9207 100.623 38.9327C100.408 38.7271 100.242 38.4757 100.137 38.1971C100.033 37.9185 99.9925 37.62 100.019 37.3237C100.019 36.9214 100.221 36.7198 100.221 36.5191H99.4162C98.9251 36.542 98.4344 36.4655 97.9735 36.2942C97.5127 36.1228 97.0911 35.8603 96.7342 35.5221C96.3772 35.184 96.0922 34.7773 95.8962 34.3264C95.7002 33.8755 95.5972 33.3896 95.5935 32.898C95.59 32.3221 95.7146 31.7526 95.9581 31.2308C96.2017 30.709 96.5582 30.2478 97.0018 29.8806C98.2386 29.0228 99.7244 28.5982 101.228 28.673H106.056L104.647 29.4775H103.038V29.2768ZM101.428 39.5365H100.827C100.005 39.5294 99.188 39.6655 98.4127 39.9388C97.8608 40.0685 97.3661 40.3742 97.0031 40.8097C96.6402 41.2452 96.4287 41.7869 96.4005 42.3532C96.4005 43.9622 98.0096 45.1698 100.424 45.1698C102.637 45.1698 103.844 44.1663 103.844 42.7554C103.844 41.3446 103.038 40.7433 101.428 39.5365ZM102.032 35.1108C102.244 34.9031 102.409 34.6514 102.513 34.3734C102.617 34.0954 102.659 33.7978 102.636 33.5018C102.636 31.8927 101.632 29.2768 99.8193 29.2768C99.5045 29.2609 99.191 29.3267 98.9091 29.4676C98.6272 29.6086 98.3865 29.82 98.2103 30.0813C97.8073 30.5186 97.5907 31.0958 97.6065 31.6903C97.6065 33.2994 98.411 35.7138 100.423 35.7138C101.017 35.7304 101.595 35.5147 102.032 35.1125V35.1108Z" fill="#F9F9F9"/>
<path d="M88.5537 39.1338C87.8242 39.1586 87.0972 39.0365 86.4158 38.7748C85.7344 38.5132 85.1125 38.1173 84.587 37.6106C84.0616 37.104 83.6433 36.4969 83.357 35.8255C83.0707 35.1541 82.9222 34.432 82.9204 33.702C82.9204 30.6847 85.3348 28.0687 88.956 28.0687C89.6753 28.0475 90.3913 28.1734 91.0602 28.4388C91.729 28.7042 92.3366 29.1034 92.8456 29.6121C93.3546 30.1207 93.7544 30.728 94.0203 31.3966C94.2862 32.0653 94.4126 32.7812 94.3919 33.5005C94.3878 34.2565 94.2325 35.004 93.935 35.6991C93.6376 36.3941 93.2041 37.0226 92.6601 37.5476C92.116 38.0725 91.4724 38.4833 90.7672 38.7557C90.062 39.0281 89.3094 39.1567 88.5537 39.1338ZM91.367 37.3232C91.8706 36.5501 92.0845 35.6237 91.9709 34.7081C91.9709 32.696 90.9673 28.8741 88.1481 28.8741C87.7727 28.8354 87.3934 28.8883 87.0429 29.0285C86.6925 29.1686 86.3813 29.3917 86.136 29.6786C85.7889 30.0155 85.5193 30.4239 85.346 30.8755C85.1727 31.3271 85.0998 31.8111 85.1324 32.2937C85.1324 34.5066 86.3392 38.3293 88.9552 38.3293C89.4042 38.3328 89.8494 38.2455 90.2639 38.0726C90.6783 37.8997 91.0536 37.6448 91.367 37.3232Z" fill="#F9F9F9"/>
<path d="M76.0811 39.1338C75.3516 39.1586 74.6245 39.0365 73.9431 38.7748C73.2617 38.5132 72.6398 38.1173 72.1144 37.6106C71.5889 37.104 71.1706 36.4969 70.8843 35.8255C70.598 35.1541 70.4496 34.432 70.4478 33.702C70.4478 30.6847 72.8622 28.0687 76.4833 28.0687C77.2026 28.0475 77.9186 28.1734 78.5875 28.4388C79.2564 28.7042 79.8639 29.1034 80.373 29.6121C80.882 30.1207 81.2817 30.728 81.5476 31.3966C81.8135 32.0653 81.94 32.7812 81.9193 33.5005C81.9152 34.2565 81.7598 35.004 81.4624 35.6991C81.165 36.3941 80.7315 37.0226 80.1874 37.5476C79.6434 38.0725 78.9998 38.4833 78.2946 38.7557C77.5893 39.0281 76.8367 39.1567 76.0811 39.1338ZM78.8944 37.3232C79.3979 36.5501 79.6118 35.6237 79.4982 34.7081C79.4982 32.696 78.4946 28.8741 75.6755 28.8741C75.3 28.8354 74.9208 28.8883 74.5703 29.0285C74.2198 29.1686 73.9086 29.3917 73.6633 29.6786C73.3125 30.0546 73.0424 30.4985 72.8698 30.983C72.6972 31.4674 72.6257 31.9821 72.6598 32.4953C72.6598 34.7081 73.8666 38.5308 76.4825 38.5308C77.3893 38.379 78.2296 37.9583 78.8944 37.3232Z" fill="#F9F9F9"/>
<path d="M68.6338 38.7284L65.4149 39.533C64.1516 39.7561 62.8742 39.8905 61.5921 39.9352C55.1526 39.9352 52.7407 35.308 52.7407 31.4886C52.7407 27.0629 56.1604 22.8379 61.9952 22.8379C63.2113 22.8724 64.4224 23.0069 65.6164 23.2402C66.7379 23.4063 67.7865 23.896 68.6338 24.6493L66.6267 26.4599L65.8221 26.6615L66.4259 25.6579C65.7982 24.9464 65.0232 24.38 64.1548 23.9979C63.2863 23.6158 62.3451 23.4271 61.3964 23.445C57.7753 23.445 54.9569 26.2617 54.9569 30.2851C54.9232 31.3868 55.1119 32.484 55.512 33.511C55.912 34.538 56.5151 35.4737 57.2852 36.2623C58.0552 37.0508 58.9764 37.676 59.9936 38.1003C61.0108 38.5246 62.1032 38.7394 63.2053 38.7318C64.246 38.7891 65.2842 38.5814 66.2227 38.128V34.3061L62.8031 34.5076L64.6137 33.5041H69.4416L68.8378 34.1079C68.6363 34.3094 68.6363 34.3094 68.6363 34.5101V38.7284H68.6338Z" fill="#F9F9F9"/>
<path d="M110.281 38.1246C109.476 38.1246 109.277 37.923 109.277 36.9178V23.6432C109.277 22.8387 109.679 22.6396 110.281 22.2349H107.062L105.453 23.2384H107.263V37.5241C107.263 37.9264 107.263 38.1279 106.659 38.7309H110.683L111.488 38.1246H110.281Z" fill="#F9F9F9"/>
<path d="M119.733 38.3299C119.532 38.5314 119.13 38.5314 118.929 38.7321C118.234 39.0427 117.475 39.1807 116.716 39.1344C115.649 39.2056 114.588 38.9229 113.699 38.3299C112.963 37.7545 112.365 37.0226 111.948 36.1874C111.531 35.3522 111.305 34.4345 111.287 33.5011C111.262 32.8075 111.38 32.1163 111.634 31.4704C111.888 30.8246 112.272 30.238 112.763 29.7473C113.254 29.2566 113.84 28.8722 114.486 28.6182C115.132 28.3642 115.823 28.2459 116.517 28.2708C117.358 28.2798 118.185 28.4866 118.931 28.8746C119.701 29.4106 120.268 30.1901 120.54 31.0875L115.109 33.3003H113.5C114.103 36.117 116.115 37.9276 118.328 37.9276C119.32 37.9041 120.289 37.6272 121.144 37.1231L119.733 38.3299ZM117.52 31.4898C117.923 31.2882 118.124 31.2882 118.124 30.8859C118.076 30.3337 117.822 29.8199 117.411 29.447C117.001 29.0741 116.466 28.8694 115.911 28.8738C114.908 28.8738 113.296 29.6783 113.296 32.0927V33.2995L117.52 31.4898Z" fill="#F9F9F9"/>
<path d="M121.949 28.2709V29.8799H121.747L121.949 28.2709H121.345V28.0693H122.552V28.2709H121.949Z" fill="#F9F9F9"/>
<path d="M123.96 29.6793V28.271L123.558 29.6793H123.356L122.955 28.271V29.88H122.753V28.271H122.955L123.357 29.6793L123.757 28.271H123.959V29.6793H123.96Z" fill="#F9F9F9"/>
<path d="M57.3714 18.4124H56.1638C56.1638 18.2109 55.9622 17.8086 55.7615 17.0041H54.1525C53.9509 17.8086 53.7502 18.2109 53.7502 18.4124H52.7441C52.959 17.6565 53.2279 16.917 53.5487 16.1996C53.9227 15.434 54.1933 14.6221 54.3532 13.7852H55.7615C55.9214 14.6221 56.192 15.434 56.566 16.1996C56.9539 16.8881 57.226 17.6357 57.3714 18.4124ZM55.7615 16.4003C55.5064 15.7469 55.3045 15.074 55.1577 14.3881C55.1577 14.3881 54.9562 15.1926 54.5539 16.4003H55.7615Z" fill="#F9F9F9"/>
<path d="M61.9988 18.4124H61.1942C61.1942 18.4124 60.792 17.8086 60.1907 16.8034C59.5894 15.7981 59.1796 15.1935 58.9805 14.7887V18.4099H58.176V13.7852H59.1796C59.3488 14.3655 59.6213 14.9106 59.9841 15.3942C60.4455 15.9938 60.7863 16.6771 60.9877 17.4063V13.9867H61.7922V16.1996C61.9699 16.9229 62.0395 17.6686 61.9988 18.4124Z" fill="#F9F9F9"/>
<path d="M67.229 15.7977C67.2138 16.4481 67.0034 17.0789 66.6252 17.6083C66.422 17.891 66.1471 18.1146 65.8289 18.256C65.5107 18.3974 65.1606 18.4515 64.8146 18.4128H63.4062V13.7856H64.8146C65.1414 13.7604 65.4699 13.8009 65.7809 13.9046C66.0918 14.0083 66.3789 14.1731 66.6252 14.3894C66.8218 14.5664 66.9776 14.784 67.0819 15.0271C67.1862 15.2703 67.2363 15.5332 67.229 15.7977ZM66.2254 15.9992C66.1834 15.5705 66.045 15.1568 65.8206 14.7891C65.6191 14.3869 65.2168 14.3869 64.6139 14.3869H64.2116V17.4067H64.6139C65.0474 17.397 65.468 17.2568 65.8206 17.0045C66.0725 16.7291 66.2155 16.3715 66.2229 15.9984L66.2254 15.9992Z" fill="#F9F9F9"/>
<path d="M72.0576 18.4124H71.054C70.9602 17.8417 70.7551 17.2949 70.4502 16.8034C70.2487 16.6018 70.048 16.6018 69.6457 16.6018H69.2384V18.4124H68.2349V13.7852H69.8439C70.8475 13.7852 71.4529 14.1874 71.4529 14.9919C71.4442 15.2762 71.3406 15.5493 71.1588 15.768C70.977 15.9866 70.7273 16.1382 70.4494 16.1987C70.6507 16.1987 70.8519 16.4 71.0532 16.8025C71.4538 17.0041 71.6545 17.6079 72.0576 18.4124ZM70.6493 14.9919C70.6203 14.7533 70.499 14.5355 70.3115 14.3851C70.1239 14.2348 69.8849 14.1638 69.6457 14.1874H69.0419V15.5957H69.4442C70.2476 15.797 70.6493 15.5957 70.6493 14.9919Z" fill="#F9F9F9"/>
<path d="M77.0864 15.9983C77.139 16.6384 76.9355 17.2732 76.5207 17.7634C76.1058 18.2537 75.5135 18.5594 74.8736 18.6134C74.2791 18.6293 73.7019 18.4126 73.2645 18.0096C72.8615 17.5723 72.6449 16.9951 72.6607 16.4006C72.6082 15.7605 72.8116 15.1258 73.2265 14.6355C73.6413 14.1453 74.2337 13.8396 74.8736 13.7855C75.4681 13.7696 76.0453 13.9862 76.4826 14.3893C76.8857 14.59 77.0864 15.1938 77.0864 15.9983ZM76.0829 15.9983C76.0729 15.5637 75.9318 15.1421 75.6781 14.789C75.4765 14.3868 75.0743 14.3868 74.6745 14.3868C74.5185 14.3894 74.3651 14.4268 74.2254 14.4964C74.0858 14.566 73.9635 14.666 73.8675 14.789C73.6445 15.156 73.507 15.5685 73.4652 15.9958C73.507 16.4232 73.6445 16.8357 73.8675 17.2026C74.0691 17.6049 74.4713 17.6049 74.8711 17.6049C75.0267 17.6019 75.1796 17.5643 75.3188 17.4947C75.458 17.4251 75.5799 17.3253 75.6756 17.2026C76.0804 17.0044 76.0804 16.6021 76.0804 15.9983H76.0829Z" fill="#F9F9F9"/>
<path d="M79.0961 18.4124H78.0925V13.7852H79.0961V18.4124Z" fill="#F9F9F9"/>
<path d="M84.3296 15.7977C84.3144 16.4481 84.104 17.0789 83.7258 17.6083C83.5226 17.891 83.2477 18.1146 82.9295 18.256C82.6113 18.3974 82.2612 18.4515 81.9152 18.4128H80.5068V13.7856H81.9152C82.242 13.7604 82.5705 13.8009 82.8814 13.9046C83.1924 14.0083 83.4794 14.1731 83.7258 14.3894C83.9224 14.5664 84.0782 14.784 84.1825 15.0271C84.2867 15.2703 84.3369 15.5332 84.3296 15.7977ZM83.326 15.9992C83.284 15.5705 83.1456 15.1568 82.9212 14.7891C82.7197 14.3869 82.3174 14.3869 81.7145 14.3869H81.3122V17.4067H81.7145C82.148 17.397 82.5686 17.2568 82.9212 17.0045C83.3235 16.8029 83.3235 16.4007 83.3235 15.9984L83.326 15.9992Z" fill="#F9F9F9"/>
<path d="M91.1688 18.4124H89.9611C89.9611 18.2109 89.7596 17.8086 89.5589 17.0041H87.9498C87.7483 17.8086 87.5476 18.2109 87.5476 18.4124H86.5415C86.7564 17.6565 87.0253 16.917 87.346 16.1996C87.7201 15.434 87.9906 14.6221 88.1505 13.7852H89.5589C89.7188 14.6221 89.9893 15.434 90.3634 16.1996C90.7512 16.8881 91.0233 17.6357 91.1688 18.4124ZM89.5589 16.4003C89.3037 15.7469 89.1018 15.074 88.9551 14.3881C88.9551 14.3881 88.7535 15.1926 88.3513 16.4003H89.5589Z" fill="#F9F9F9"/>
<path d="M95.393 14.9919C95.4227 15.2302 95.3812 15.472 95.2737 15.6867C95.1663 15.9014 94.9977 16.0796 94.7892 16.1987C94.2891 16.45 93.7396 16.5873 93.1802 16.601H92.9769V18.4116H91.9734V13.7852H93.784C94.2113 13.8269 94.6238 13.9644 94.9908 14.1874C95.1923 14.1874 95.393 14.5897 95.393 14.9919ZM94.5885 15.1935C94.5885 14.5897 94.1862 14.389 93.5849 14.389H92.9769V15.998H93.1785C93.9855 15.998 94.5885 15.5957 94.5885 15.1935Z" fill="#F9F9F9"/>
<path d="M99.8195 14.9919C99.8492 15.2302 99.8077 15.472 99.7002 15.6867C99.5928 15.9014 99.4242 16.0796 99.2157 16.1987C98.7157 16.45 98.1662 16.5873 97.6067 16.601H97.4035V18.4116H96.3999V13.7852H98.2105C98.6379 13.8269 99.0503 13.9644 99.4173 14.1874C99.6188 14.1874 99.8195 14.5897 99.8195 14.9919ZM98.816 15.1935C98.816 14.5897 98.4137 14.389 97.8124 14.389H97.2086V15.998H97.4035C98.412 15.998 98.8143 15.5957 98.8143 15.1935H98.816Z" fill="#F9F9F9"/>
<path d="M106.86 15.9983C106.913 16.6384 106.709 17.2732 106.295 17.7634C105.88 18.2537 105.287 18.5594 104.648 18.6134C104.053 18.6293 103.476 18.4126 103.038 18.0096C102.635 17.5723 102.419 16.9951 102.435 16.4006C102.382 15.7605 102.586 15.1258 103 14.6355C103.415 14.1453 104.008 13.8396 104.648 13.7855C105.242 13.7696 105.819 13.9862 106.257 14.3893C106.66 14.59 106.86 15.1938 106.86 15.9983ZM105.857 15.9983C105.847 15.5637 105.706 15.1421 105.452 14.789C105.25 14.3868 104.848 14.3868 104.448 14.3868C104.292 14.3894 104.139 14.4268 103.999 14.4964C103.86 14.566 103.737 14.666 103.641 14.789C103.418 15.156 103.281 15.5685 103.239 15.9958C103.281 16.4232 103.418 16.8357 103.641 17.2026C103.843 17.6049 104.245 17.6049 104.645 17.6049C104.801 17.6019 104.954 17.5643 105.093 17.4947C105.232 17.4251 105.354 17.3253 105.45 17.2026C105.735 16.8685 105.88 16.437 105.854 15.9983H105.857Z" fill="#F9F9F9"/>
<path d="M111.689 18.4124H110.885C110.885 18.4124 110.482 17.8086 109.881 16.8034C109.28 15.7981 108.87 15.1935 108.671 14.7887V18.4099H107.866V13.7852H108.87C109.039 14.3655 109.312 14.9106 109.675 15.3942C110.136 15.9938 110.477 16.6771 110.678 17.4063V13.9867H111.483V16.1996C111.66 16.9229 111.73 17.6686 111.689 18.4124Z" fill="#F9F9F9"/>
<defs>
<linearGradient id="paint0_linear_3_1285" x1="23.2152" y1="13.0687" x2="23.2152" y2="50.9652" gradientUnits="userSpaceOnUse">
<stop stop-color="#257DB0"/>
<stop offset="0.208" stop-color="#3C90B3"/>
<stop offset="0.742" stop-color="#73BDB9"/>
<stop offset="1" stop-color="#89CEBC"/>
</linearGradient>
<linearGradient id="paint1_linear_3_1285" x1="13.6683" y1="22.4801" x2="37.9063" y2="22.4801" gradientUnits="userSpaceOnUse">
<stop stop-color="#51BFAC"/>
<stop offset="1" stop-color="#DEE899"/>
</linearGradient>
<linearGradient id="paint2_linear_3_1285" x1="25.7873" y1="32.0166" x2="25.7873" y2="51.0973" gradientUnits="userSpaceOnUse">
<stop stop-color="#EB403D"/>
<stop offset="0.194" stop-color="#D64252"/>
<stop offset="0.737" stop-color="#9F4887"/>
<stop offset="1" stop-color="#894A9C"/>
</linearGradient>
<linearGradient id="paint3_linear_3_1285" x1="39.7421" y1="26.9341" x2="39.7421" y2="37.1118" gradientUnits="userSpaceOnUse">
<stop stop-color="#F48779"/>
<stop offset="0.612" stop-color="#FAB076"/>
<stop offset="1" stop-color="#FDC674"/>
</linearGradient>
</defs>
</svg>
