<svg width="172" height="61" viewBox="0 0 172 61" fill="none" xmlns="http://www.w3.org/2000/svg">
<path d="M171.841 52.207C171.841 56.6327 168.421 60.4554 164.196 60.4554H8.48544C4.26045 60.4588 0.84082 56.8376 0.84082 52.207V8.3539C0.84082 3.72665 4.26045 0.105469 8.48544 0.105469H164.398C168.421 0.105469 171.841 3.72665 171.841 8.3539V52.207Z" fill="#222222"/>
<path d="M45.5018 39.3356C44.8186 40.9385 44.0113 42.4856 43.0874 43.9629C41.4784 46.3773 39.2647 49.5962 36.2473 49.5962C33.6322 49.5962 33.0284 47.9871 29.6087 47.9871C26.1891 47.9871 25.3838 49.5962 22.9702 49.5962C20.1535 49.5962 17.9407 46.7795 16.3316 44.3659C11.7044 37.525 11.3021 29.2766 14.1188 25.0516C16.1301 22.0342 19.349 20.2236 22.1657 20.2236C25.183 20.2236 26.9936 21.8327 29.6087 21.8327C32.0231 21.8327 33.4315 20.2236 37.0518 20.2236C38.4941 20.2896 39.9052 20.6651 41.1895 21.3247C42.4738 21.9843 43.6011 22.9125 44.4949 24.0464C37.8572 27.466 38.8632 36.7205 45.5018 39.3356Z" fill="white"/>
<path d="M34.236 17.2055C34.9433 16.3422 35.4684 15.3445 35.7796 14.2727C36.0908 13.2009 36.1816 12.0771 36.0466 10.9692C33.7622 11.2577 31.6748 12.4095 30.2126 14.1882C29.0058 15.7972 27.7982 18.0109 28.2004 20.2237C29.3769 20.2547 30.5429 19.9955 31.5955 19.4691C32.6481 18.9427 33.555 18.1653 34.236 17.2055Z" fill="white"/>
<path d="M59.3853 24.8511L52.9458 43.963H55.9632L57.9753 38.129H64.2116L66.2237 43.963H69.2411L62.6026 24.8511H59.3853ZM60.7936 27.8684C60.9692 28.766 61.2388 29.6425 61.5982 30.4836L63.4088 35.5131H58.3776L60.1882 30.4836C60.4339 29.6227 60.6354 28.7499 60.792 27.8684H60.7936Z" fill="white"/>
<path d="M77.4887 29.6789C76.5951 29.6402 75.7058 29.8218 74.8989 30.2077C74.092 30.5936 73.3923 31.1719 72.8615 31.8918L72.6599 30.0812H70.0457V30.2827C70.0457 31.4895 70.2472 32.6971 70.2472 34.7084V49.3939H73.0639V42.558C73.5829 43.095 74.2098 43.5161 74.9033 43.7934C75.5967 44.0707 76.3411 44.198 77.0873 44.167C77.9078 44.1709 78.721 44.013 79.4804 43.7024C80.2398 43.3917 80.9305 42.9343 81.513 42.3564C82.8583 40.7927 83.5753 38.7853 83.5251 36.7231C83.58 34.9119 83.0121 33.1366 81.9161 31.6936C80.7591 30.471 79.1706 29.7481 77.4887 29.6789ZM76.6842 32.0933C79.2993 32.0933 80.5069 34.5077 80.5069 36.9213C80.5069 39.9387 79.0986 41.9508 76.6842 41.9508C75.9021 41.9673 75.1377 41.7175 74.5163 41.2423C73.8949 40.7671 73.4535 40.0948 73.2646 39.3357C73.1778 39.0054 73.1105 38.6703 73.063 38.3321V34.9092C73.3132 34.13 73.7927 33.4444 74.4387 32.942C75.0848 32.4396 75.8674 32.1438 76.6842 32.0933Z" fill="white"/>
<path d="M92.3757 29.6789C91.4821 29.6402 90.5927 29.8218 89.7858 30.2077C88.9789 30.5936 88.2793 31.1719 87.7484 31.8918L87.5469 30.0812H84.9326V30.2827C84.9326 31.4895 85.1342 32.6971 85.1342 34.7084V49.3939H87.9508V42.558C88.4699 43.095 89.0967 43.5161 89.7902 43.7934C90.4837 44.0707 91.228 44.198 91.9743 44.167C92.7948 44.1709 93.608 44.013 94.3674 43.7024C95.1268 43.3917 95.8175 42.9343 96.4 42.3564C97.7453 40.7927 98.4623 38.7853 98.4121 36.7231C98.467 34.9119 97.8991 33.1366 96.8031 31.6936C96.2429 31.0718 95.5608 30.5721 94.7991 30.2255C94.0374 29.8788 93.2124 29.6928 92.3757 29.6789ZM91.7719 32.0933C94.387 32.0933 95.5946 34.5077 95.5946 36.9213C95.5946 39.9387 94.1863 41.9508 91.7719 41.9508C90.9898 41.9673 90.2253 41.7175 89.604 41.2423C88.9826 40.7671 88.5412 40.0948 88.3522 39.3357C88.2655 39.0054 88.1982 38.6703 88.1507 38.3321V34.9092C88.401 34.1298 88.8805 33.4441 89.5268 32.9418C90.173 32.4394 90.9557 32.1437 91.7727 32.0933H91.7719Z" fill="white"/>
<path d="M111.085 32.8954C108.47 31.8918 107.464 31.0848 107.464 29.4758C107.464 28.269 108.468 26.8606 110.683 26.8606C111.871 26.8511 113.044 27.127 114.103 27.6652L114.304 27.8667L115.109 25.4523H114.908C113.609 24.7627 112.154 24.4173 110.683 24.4488C107.062 24.4488 104.447 26.6616 104.447 29.679C104.447 32.2941 106.056 33.904 109.476 35.3123C111.891 36.3159 112.896 37.1229 112.896 38.7319C112.896 40.5425 111.488 41.7493 109.275 41.7493C107.78 41.754 106.315 41.3356 105.048 40.5425L104.847 40.341L104.045 42.7562H104.246C105.704 43.823 107.469 44.3877 109.276 44.3652C114.305 44.3652 116.116 41.3479 116.116 38.7319C116.115 35.9161 114.707 34.3062 111.085 32.8954Z" fill="white"/>
<path d="M121.346 26.8633L118.529 27.6678V30.0822H116.518V32.2951H118.53V39.3359C118.53 41.1465 118.932 42.3532 119.534 42.957C120.138 43.7616 121.143 43.9606 122.35 43.9606C123.108 43.9838 123.862 43.8467 124.563 43.5583H124.765L124.563 41.1439H124.362C123.915 41.3237 123.432 41.3929 122.953 41.3455C121.747 41.3455 121.344 40.541 121.344 38.9311V32.2951H124.764V29.8807H121.346V26.8633Z" fill="white"/>
<path d="M132.008 29.679C127.985 29.679 125.168 32.6963 125.168 37.122C125.168 41.347 127.985 44.3644 131.807 44.3644C135.226 44.3644 138.647 41.95 138.647 36.9213C138.695 35.0163 138.052 33.1582 136.836 31.6911C136.209 31.0474 135.457 30.5373 134.628 30.1915C133.798 29.8457 132.907 29.6713 132.008 29.679ZM131.807 32.0933C134.422 32.0933 135.629 34.7085 135.629 36.9213C135.629 39.738 134.02 41.9508 131.807 41.9508C129.594 41.9508 127.984 39.9387 127.984 36.9213C127.985 34.5069 129.191 32.0933 131.807 32.0933Z" fill="white"/>
<path d="M147.499 29.8805C147.255 29.74 146.976 29.6703 146.694 29.6789C145.918 29.6713 145.158 29.8976 144.512 30.3282C143.866 30.7588 143.365 31.3739 143.073 32.0933V30.0812H140.458V30.2828C140.458 31.4895 140.66 32.6972 140.66 34.5077V43.9621H143.476V35.3123C143.878 33.5017 145.085 32.2949 146.494 32.2949H147.7V29.8805H147.499Z" fill="white"/>
<path d="M154.138 29.6787C150.315 29.6787 147.499 32.6961 147.499 37.1218C147.499 41.3468 150.114 44.1626 154.339 44.1626C155.92 44.204 157.493 43.9305 158.966 43.3581H159.168L158.564 41.1452H158.363C157.221 41.6311 155.979 41.8381 154.741 41.749C154.166 41.792 153.589 41.7137 153.046 41.5193C152.503 41.3249 152.006 41.0187 151.589 40.6204C151.172 40.2222 150.843 39.7408 150.624 39.2074C150.404 38.674 150.299 38.1005 150.316 37.524H159.771V36.1182C159.771 33.2999 158.363 29.6787 154.138 29.6787ZM153.939 31.8916C154.342 31.871 154.746 31.9316 155.126 32.0697C155.507 32.2079 155.855 32.4209 156.151 32.6961C156.796 33.4146 157.154 34.3457 157.155 35.3112H150.516C150.718 33.7022 151.724 31.8916 153.939 31.8916Z" fill="white"/>
<path d="M52.7441 11.7745C53.6723 11.6 54.6173 11.5324 55.5608 11.5729C57.3714 11.5729 58.7797 11.9752 59.5842 12.7797C60.0639 13.1605 60.443 13.653 60.6885 14.2141C60.934 14.7752 61.0384 15.3879 60.9926 15.9986C60.9547 17.332 60.4572 18.6113 59.5842 19.6198C58.2516 20.4298 56.7178 20.848 55.1585 20.8266C54.3483 20.8683 53.5362 20.8005 52.7441 20.625V11.7745ZM54.1525 19.8214H55.5608C58.3775 19.8214 59.7858 18.413 59.7858 15.9986C59.7858 13.7858 58.3775 12.579 55.7623 12.579C55.2178 12.5334 54.6698 12.602 54.1533 12.7805V19.8214H54.1525Z" fill="white"/>
<path d="M65.8206 20.8274C65.3619 20.8653 64.9004 20.8028 64.4682 20.6443C64.0361 20.4858 63.6436 20.235 63.3182 19.9095C62.9928 19.584 62.7421 19.1915 62.5837 18.7593C62.4253 18.3271 62.363 17.8656 62.401 17.4069C62.401 15.1941 64.01 13.9873 66.0221 13.9873C66.4767 13.9666 66.9306 14.0409 67.3549 14.2054C67.7791 14.3699 68.1644 14.6211 68.4862 14.9429C68.808 15.2646 69.0591 15.6499 69.2236 16.0742C69.3882 16.4984 69.4625 16.9523 69.4418 17.4069C69.4429 17.8736 69.3485 18.3355 69.1643 18.7643C68.9801 19.193 68.7101 19.5795 68.3708 19.8999C68.0315 20.2203 67.6302 20.4678 67.1916 20.6272C66.753 20.7866 66.2864 20.8544 65.8206 20.8265V20.8274ZM65.8206 19.8238C67.0274 19.8238 68.0334 18.8203 68.0334 17.2087C68.0547 16.9031 68.0135 16.5963 67.9125 16.307C67.8114 16.0178 67.6525 15.7522 67.4455 15.5263C67.2385 15.3004 66.9877 15.1191 66.7083 14.9932C66.429 14.8674 66.1269 14.7997 65.8206 14.7943C64.2115 14.7943 63.6077 16.0011 63.6077 17.4094C63.5726 17.7179 63.604 18.0303 63.6999 18.3256C63.7959 18.6209 63.9541 18.8921 64.1639 19.121C64.3736 19.3499 64.6301 19.531 64.9159 19.6523C65.2017 19.7735 65.5102 19.832 65.8206 19.8238Z" fill="white"/>
<path d="M71.4537 14.188L72.4573 17.4069C72.6588 18.2114 72.8596 18.8152 73.0611 19.419C73.2627 18.8152 73.4634 18.0107 73.6649 17.4069L74.8734 14.188H76.0802L77.2869 17.4069C77.3231 18.159 77.4583 18.9031 77.6892 19.6198C77.8907 19.0159 78.0915 18.2114 78.293 17.4069L79.2999 14.188H80.5067L78.0923 20.6275H76.8855L75.6787 17.6101C75.6426 16.858 75.5073 16.114 75.2765 15.3973C75.0749 16.2018 74.8742 16.8056 74.6727 17.6101L73.465 20.6275H72.2583L70.0454 14.188H71.4537Z" fill="white"/>
<path d="M81.915 15.9991V14.1885H83.1218V15.1921C83.3922 14.8061 83.7546 14.4938 84.1762 14.2833C84.5978 14.0729 85.0653 13.971 85.5362 13.987C85.8994 13.9784 86.2603 14.047 86.5951 14.1883C86.9298 14.3295 87.2307 14.5403 87.4779 14.8065C87.7251 15.0728 87.913 15.3885 88.0291 15.7328C88.1452 16.077 88.1868 16.442 88.1513 16.8036V20.6264H86.743V16.8036C86.743 15.8001 86.3407 14.7915 85.134 14.7915C84.749 14.8009 84.3745 14.9193 84.0541 15.1329C83.7336 15.3465 83.4802 15.6466 83.3234 15.9983V20.6255H81.915V15.9991Z" fill="white"/>
<path d="M90.1628 11.1704H91.5712V20.8272H90.1628V11.1704Z" fill="white"/>
<path d="M96.6006 20.8274C96.1419 20.8653 95.6804 20.8028 95.2483 20.6443C94.8161 20.4858 94.4237 20.235 94.0982 19.9095C93.7728 19.584 93.5222 19.1915 93.3638 18.7593C93.2054 18.3271 93.143 17.8656 93.181 17.4069C93.181 15.1941 94.79 13.9873 96.8022 13.9873C97.2567 13.9666 97.7106 14.0409 98.1349 14.2054C98.5591 14.3699 98.9445 14.6211 99.2662 14.9429C99.588 15.2646 99.8391 15.6499 100.004 16.0742C100.168 16.4984 100.242 16.9523 100.222 17.4069C100.222 19.8213 98.4112 20.8265 96.6006 20.8265V20.8274ZM96.8022 19.8238C98.0089 19.8238 99.015 18.8203 99.015 17.2087C99.0366 16.9029 98.9957 16.5958 98.8948 16.3063C98.7939 16.0167 98.6351 15.7508 98.428 15.5247C98.221 15.2985 97.97 15.1169 97.6905 14.9909C97.411 14.8649 97.1087 14.7972 96.8022 14.7918C95.1931 14.7918 94.5893 15.9986 94.5893 17.4069C94.5541 17.7154 94.5856 18.0278 94.6815 18.3231C94.7775 18.6184 94.9357 18.8896 95.1454 19.1185C95.3552 19.3474 95.6117 19.5285 95.8975 19.6498C96.1833 19.771 96.4918 19.8295 96.8022 19.8213V19.8238Z" fill="white"/>
<path d="M107.062 19.0169C107.016 19.5614 107.085 20.1095 107.263 20.6259H106.056L105.854 19.8214C105.595 20.1567 105.258 20.4235 104.873 20.5985C104.487 20.7734 104.064 20.8512 103.641 20.825C103.11 20.87 102.582 20.7065 102.169 20.3691C101.756 20.0316 101.49 19.5467 101.428 19.0169C101.428 17.4078 103.038 16.6025 105.854 16.6025V16.4018C105.888 16.1906 105.868 15.9744 105.795 15.7733C105.723 15.5721 105.6 15.3927 105.44 15.2517C105.279 15.1107 105.085 15.0129 104.876 14.9673C104.667 14.9217 104.45 14.9298 104.245 14.9909C103.621 15.0061 103.006 15.1428 102.435 15.3932L102.233 14.5887C102.435 14.1864 103.44 13.9849 104.245 13.9849C106.458 13.9849 107.062 15.3932 107.062 16.6V19.0144V19.0169ZM105.855 17.4078C104.447 17.4078 102.838 17.6094 102.838 18.8162C102.831 18.9764 102.858 19.1363 102.916 19.2857C102.974 19.4351 103.063 19.5708 103.176 19.6842C103.29 19.7976 103.425 19.8863 103.575 19.9446C103.724 20.0029 103.884 20.0296 104.044 20.023C104.409 20.036 104.77 19.9494 105.089 19.7726C105.408 19.5958 105.673 19.3354 105.855 19.0194V17.407V17.4078Z" fill="white"/>
<path d="M115.309 11.1704V20.6256H114.107V19.4188C113.868 19.8359 113.512 20.173 113.082 20.3878C112.653 20.6025 112.169 20.6853 111.692 20.6256C111.278 20.6275 110.868 20.544 110.487 20.3803C110.107 20.2166 109.764 19.9762 109.481 19.6742C109.197 19.3721 108.979 19.0149 108.839 18.6248C108.7 18.2347 108.643 17.82 108.671 17.4067C108.628 16.964 108.679 16.5172 108.823 16.0962C108.967 15.6752 109.199 15.2899 109.504 14.966C109.809 14.6421 110.179 14.3872 110.591 14.2183C111.002 14.0495 111.445 13.9706 111.89 13.9871C112.315 13.9374 112.746 14.0046 113.136 14.1814C113.525 14.3583 113.86 14.638 114.103 14.9906V11.1704H115.309ZM114.103 16.8037V16.1999C113.991 15.8026 113.755 15.4515 113.429 15.1981C113.103 14.9447 112.705 14.8022 112.292 14.7916C111.982 14.7834 111.673 14.8419 111.387 14.9631C111.101 15.0844 110.845 15.2655 110.635 15.4944C110.425 15.7233 110.267 15.9945 110.171 16.2898C110.075 16.5851 110.044 16.8975 110.079 17.206C110.044 17.5142 110.076 17.8263 110.172 18.1211C110.269 18.416 110.427 18.6868 110.637 18.9153C110.846 19.1438 111.103 19.3247 111.388 19.4457C111.674 19.5668 111.982 19.6252 112.292 19.617C112.722 19.5827 113.136 19.434 113.489 19.1864C113.843 18.9388 114.124 18.6013 114.304 18.2087V16.8037H114.103Z" fill="white"/>
<path d="M123.76 20.8274C123.301 20.8653 122.839 20.8028 122.407 20.6443C121.975 20.4858 121.583 20.235 121.257 19.9095C120.932 19.584 120.681 19.1915 120.523 18.7593C120.364 18.3271 120.302 17.8656 120.34 17.4069C120.34 15.1941 121.949 13.9873 123.961 13.9873C124.416 13.9666 124.87 14.0409 125.294 14.2054C125.718 14.3699 126.103 14.6211 126.425 14.9429C126.747 15.2646 126.998 15.6499 127.163 16.0742C127.327 16.4984 127.401 16.9523 127.381 17.4069C127.382 17.8736 127.287 18.3355 127.103 18.7643C126.919 19.193 126.649 19.5795 126.31 19.8999C125.97 20.2203 125.569 20.4678 125.131 20.6272C124.692 20.7866 124.225 20.8544 123.76 20.8265V20.8274ZM123.76 19.8238C124.966 19.8238 125.972 18.8203 125.972 17.2087C125.994 16.9031 125.953 16.5963 125.851 16.307C125.75 16.0178 125.591 15.7522 125.384 15.5263C125.177 15.3004 124.927 15.1191 124.647 14.9932C124.368 14.8674 124.066 14.7997 123.76 14.7943C122.151 14.7943 121.547 16.2026 121.547 17.4094C121.529 17.7143 121.573 18.0196 121.675 18.3073C121.777 18.595 121.937 18.8592 122.143 19.0843C122.349 19.3094 122.599 19.4909 122.876 19.6179C123.154 19.7449 123.454 19.8149 123.76 19.8238Z" fill="white"/>
<path d="M128.99 15.9991V14.1885H130.197V15.1921C130.468 14.8061 130.83 14.4938 131.252 14.2833C131.673 14.0729 132.141 13.971 132.612 13.987C132.975 13.9784 133.336 14.047 133.671 14.1883C134.005 14.3295 134.306 14.5403 134.553 14.8065C134.801 15.0728 134.988 15.3885 135.105 15.7328C135.221 16.077 135.262 16.442 135.227 16.8036V20.6264H133.818V16.8036C133.818 15.8001 133.416 14.7915 132.209 14.7915C131.824 14.8009 131.45 14.9193 131.129 15.1329C130.809 15.3465 130.556 15.6466 130.399 15.9983V20.6255H128.99V15.9991Z" fill="white"/>
<path d="M142.067 12.5791V14.1881H143.878V14.9927H142.067V18.4123C142.067 19.2168 142.269 19.6191 143.071 19.6191H143.875V20.4236C143.479 20.5253 143.076 20.5927 142.668 20.6251C142.168 20.6451 141.674 20.5041 141.26 20.2229C141.044 19.9765 140.879 19.6895 140.775 19.3785C140.672 19.0676 140.631 18.7391 140.656 18.4123V14.9935H139.653V14.1881H140.859V12.9814L142.067 12.5791Z" fill="white"/>
<path d="M145.487 11.1704H146.895V15.1939C147.132 14.8229 147.485 14.5402 147.898 14.3893C148.326 14.1373 148.811 13.9988 149.307 13.9871C149.67 13.9779 150.032 14.046 150.367 14.187C150.702 14.3281 151.004 14.5387 151.251 14.805C151.499 15.0714 151.687 15.3873 151.804 15.7318C151.92 16.0764 151.962 16.4418 151.926 16.8037V20.6265H150.516V17.0053C150.516 16.0017 150.114 14.9931 148.907 14.9931C148.522 15.0026 148.148 15.121 147.827 15.3346C147.507 15.5481 147.253 15.8482 147.096 16.1999V20.8272H145.688V11.1704H145.487Z" fill="white"/>
<path d="M154.539 17.6085C154.529 17.9193 154.587 18.2287 154.707 18.5154C154.828 18.8021 155.009 19.0593 155.238 19.2695C155.468 19.4796 155.74 19.6377 156.036 19.733C156.332 19.8282 156.645 19.8584 156.954 19.8213C157.647 19.8505 158.337 19.7125 158.966 19.4191L159.167 20.2236C158.401 20.5286 157.577 20.6657 156.753 20.6259C154.54 20.6259 153.132 19.2175 153.132 17.4069C153.132 15.3948 154.339 13.7858 156.551 13.7858C156.956 13.7554 157.361 13.8126 157.741 13.9535C158.121 14.0943 158.466 14.3156 158.753 14.602C159.04 14.8885 159.261 15.2334 159.402 15.6133C159.543 15.9932 159.601 16.399 159.571 16.8031V17.4069L154.539 17.6085ZM158.362 16.804C158.388 16.5501 158.361 16.2936 158.282 16.0509C158.203 15.8083 158.074 15.5849 157.903 15.3951C157.732 15.2054 157.524 15.0534 157.291 14.9491C157.058 14.8447 156.806 14.7903 156.551 14.7893C156.282 14.7721 156.013 14.8124 155.761 14.9074C155.509 15.0025 155.28 15.1501 155.09 15.3405C154.899 15.5309 154.752 15.7597 154.657 16.0116C154.562 16.2635 154.521 16.5328 154.538 16.8014L158.362 16.804Z" fill="white"/>
</svg>
