<svg width="180" height="56" viewBox="0 0 180 56" fill="none" xmlns="http://www.w3.org/2000/svg">
<path d="M98.0004 3.31452L90.096 0L82.1914 3.31452H0V35.5348L7.90449 43.5127H72.1765L90.0575 50.9511L107.977 43.5127H108.015H172.057L180 35.5348V3.31452H98.0004Z" fill="#4E7F51"/>
<path fill-rule="evenodd" clip-rule="evenodd" d="M62.6987 33.8775C62.4941 34.34 62.1871 34.7511 61.7778 35.1108C61.3429 35.4448 60.8185 35.7146 60.2046 35.9202C59.5651 36.1257 58.7976 36.2285 57.9023 36.2285C57.3139 36.2285 56.7512 36.1642 56.214 36.0358C55.6768 35.9073 55.1779 35.7532 54.7175 35.5733C54.257 35.3677 53.8349 35.1493 53.4512 34.9181C53.0675 34.6612 52.7094 34.4042 52.3768 34.1473C51.635 33.5306 50.9955 32.8369 50.4583 32.0661L52.9908 29.8692C53.0675 29.972 53.1571 30.0876 53.2594 30.2161C53.3617 30.3189 53.4768 30.4473 53.6047 30.6015C53.707 30.73 53.8349 30.8713 53.9884 31.0255L55.7535 29.5609C55.2675 29.2012 54.8454 28.7901 54.4872 28.3276C54.1547 27.8394 53.9884 27.2613 53.9884 26.5932C53.9884 26.0537 54.078 25.5526 54.257 25.0902C54.4617 24.6277 54.743 24.2166 55.1012 23.8568C55.4593 23.5228 55.8942 23.2659 56.4058 23.086C56.9174 22.8805 57.4802 22.7777 58.0942 22.7777C58.6569 22.7777 59.1813 22.8676 59.6674 23.0475C60.1534 23.253 60.5755 23.5228 60.9336 23.8568C61.2918 24.1909 61.5732 24.5763 61.7778 25.0131C61.9824 25.4756 62.0848 25.9766 62.0848 26.5162C62.0848 27.0301 61.9824 27.4925 61.7778 27.9036C61.5987 28.3404 61.3557 28.713 61.0487 29.0213C61.6371 29.381 62.1104 29.8307 62.4685 30.3703C62.8011 30.9098 62.9673 31.565 62.9673 32.3358C62.9673 32.8754 62.8778 33.3893 62.6987 33.8775ZM58.6314 32.7598C58.8872 32.6056 59.0151 32.3744 59.0151 32.0661C59.0151 31.732 58.8488 31.4494 58.5162 31.2182L56.6744 32.7983C56.8535 32.8497 57.0453 32.8883 57.25 32.914C57.429 32.9653 57.6209 32.991 57.8255 32.991C58.1325 32.991 58.4011 32.914 58.6314 32.7598ZM58.5546 25.9766C58.4267 25.8224 58.2476 25.7454 58.0174 25.7454C57.8127 25.7454 57.6465 25.8096 57.5186 25.9381C57.3907 26.0665 57.3267 26.2464 57.3267 26.4776C57.3267 26.6832 57.3907 26.863 57.5186 27.0172C57.6465 27.1971 57.8511 27.3769 58.1325 27.5568C58.3883 27.3255 58.5546 27.1328 58.6314 26.9787C58.7081 26.8245 58.7465 26.6575 58.7465 26.4776C58.7465 26.2721 58.6825 26.1051 58.5546 25.9766Z" fill="#FEFEFE"/>
<path d="M30.9272 13.3352C30.6714 12.4873 30.3005 11.8064 29.8145 11.2925C28.3563 9.98212 25.4785 9.36546 21.0274 9.36546L20.9123 9.40399L20.7205 9.48108V12.3331L20.9123 12.5644H21.0274C23.0995 12.5644 24.7495 12.68 26.0541 12.9498C27.2052 13.2196 27.8192 14.1831 27.9727 15.8789H20.7205V19.0007H31.5028V16.1101C31.3493 14.9539 31.1575 13.9904 30.9272 13.3352Z" fill="#FEFEFE"/>
<path fill-rule="evenodd" clip-rule="evenodd" d="M41.2491 13.0654V20.1569C41.2491 21.6986 40.0596 23.1246 37.6806 24.3579C35.8771 25.1673 34.3806 25.5527 33.076 25.5527H32.9609L32.8074 25.3985V25.2829V22.585L32.9993 22.4694L33.1144 22.4308C33.9202 22.4308 35.033 22.1611 36.4527 21.6215C36.8876 21.4159 37.2585 21.1847 37.5655 20.9277C37.9876 20.5423 38.0643 20.3496 38.0643 20.2725V19.0007C37.6038 18.9622 36.9899 18.8851 35.9923 18.6924C34.4063 18.2299 33.4086 17.4334 32.9993 16.3028C32.8458 15.7633 32.7307 15.3393 32.7307 14.9924V9.36546H33.076C35.4934 9.36546 37.0667 9.48108 37.9108 9.71233C39.7143 10.0977 40.8271 11.0613 41.2108 12.6029V12.6414L41.2491 13.0654ZM38.0259 15.7633V13.7591C38.0259 13.3223 37.8597 13.0012 37.5271 12.7956C37.3736 12.7185 36.9515 12.5644 35.9155 12.5258V14.3372C35.9155 14.9924 36.1457 15.4164 36.6446 15.5705C36.7981 15.6476 37.1434 15.7247 38.0259 15.7633Z" fill="#FEFEFE"/>
<path d="M58.6314 8.36338C59.3988 8.36338 60.2813 8.09359 60.2813 6.78319V5.81967L59.1686 5.20301L58.6314 4.93323L58.4779 5.01031C57.9023 5.31864 57.1733 5.70405 57.0965 5.81967L57.0198 5.89675V6.66757C57.0198 8.09359 57.9023 8.36338 58.6314 8.36338Z" fill="#FEFEFE"/>
<path fill-rule="evenodd" clip-rule="evenodd" d="M62.6989 9.36546V15.1851C62.4943 16.7525 61.7012 17.8188 60.3199 18.384C59.8594 18.5767 59.2455 18.6924 58.3629 18.8465C57.3141 18.9493 56.1118 19.0007 54.756 19.0007H51.034V20.1569C51.034 21.8142 49.7677 23.3173 47.4655 24.3579C46.9666 24.5891 46.5829 24.6662 46.3143 24.6662C46.1608 24.6919 46.0329 24.6662 45.9306 24.5891C45.5853 24.3964 45.6237 23.9725 45.6237 23.5871C45.6237 23.4843 45.6237 23.3944 45.6237 23.3173C45.6237 23.2145 45.6237 23.1246 45.6237 23.0475C45.6237 22.4694 45.5853 21.8527 46.4295 21.5059C46.8515 21.3517 47.0434 21.1975 47.3887 20.9277C47.8108 20.5423 47.8492 20.3496 47.8492 20.2725V19.0007C47.4271 18.9622 46.7748 18.8851 45.7772 18.6924C44.2167 18.2299 43.2318 17.4334 42.8225 16.3028C42.6307 15.6862 42.554 15.2622 42.554 14.9924V9.40399L42.8609 9.36546C45.3167 9.36546 46.8899 9.48108 47.7341 9.71233C49.5375 10.0977 50.6503 11.0613 50.9957 12.6029L51.034 13.0654V15.8789H54.1804V13.181C54.2188 12.6029 54.3723 12.0633 54.6793 11.4467C54.9863 10.9842 55.3828 10.6116 55.8688 10.329C56.3293 10.0207 56.9816 9.82795 57.9025 9.63524C58.9385 9.44254 60.3199 9.36546 62.1233 9.36546H62.6989ZM57.9025 12.8341C57.6723 12.9369 57.5316 13.1425 57.4804 13.4508L57.4037 13.682V15.7247C58.6315 15.7247 59.0152 15.532 59.1304 15.4164C59.3606 15.1466 59.5141 14.8383 59.5141 14.4914V12.5644C58.5164 12.5644 58.056 12.7185 57.9025 12.8341ZM47.8492 15.7247V13.7591C47.8492 13.3223 47.6701 13.0012 47.312 12.7956C47.1969 12.7185 46.7748 12.5644 45.7387 12.5258V14.3372C45.7387 14.9796 45.969 15.3907 46.4295 15.5705C46.5829 15.6091 46.9283 15.7247 47.8492 15.7247Z" fill="#FEFEFE"/>
<path d="M117.915 8.44046H124.937V11.4467H121.714V12.7185H124.86V15.5705H121.714V19.9257H117.915V8.44046Z" fill="#FEFEFE"/>
<path fill-rule="evenodd" clip-rule="evenodd" d="M125.551 14.1831C125.551 13.3609 125.717 12.59 126.05 11.8706C126.382 11.1255 126.83 10.4831 127.393 9.94357C127.956 9.404 128.621 8.98004 129.388 8.67171C130.13 8.33769 130.936 8.17068 131.806 8.17068C132.65 8.17068 133.456 8.33769 134.223 8.67171C134.99 8.98004 135.655 9.404 136.218 9.94357C136.781 10.4831 137.229 11.1255 137.561 11.8706C137.894 12.59 138.06 13.3609 138.06 14.1831C138.06 15.0053 137.894 15.7889 137.561 16.5341C137.229 17.2792 136.781 17.9215 136.218 18.4611C135.655 19.0007 134.99 19.4246 134.223 19.733C133.456 20.0413 132.65 20.1955 131.806 20.1955C130.936 20.1955 130.13 20.0413 129.388 19.733C128.621 19.4246 127.956 19.0007 127.393 18.4611C126.83 17.9215 126.382 17.2792 126.05 16.5341C125.717 15.7889 125.551 15.0053 125.551 14.1831ZM129.311 14.1831C129.311 14.5171 129.375 14.8383 129.503 15.1466C129.631 15.4292 129.81 15.6862 130.041 15.9174C130.271 16.123 130.539 16.29 130.846 16.4184C131.128 16.5469 131.447 16.6111 131.806 16.6111C132.138 16.6111 132.458 16.5469 132.765 16.4184C133.072 16.29 133.34 16.123 133.571 15.9174C133.801 15.6862 133.98 15.4292 134.108 15.1466C134.236 14.8383 134.3 14.5171 134.3 14.1831C134.3 13.8491 134.236 13.5407 134.108 13.2581C133.98 12.9754 133.801 12.7185 133.571 12.4873C133.34 12.2817 133.072 12.1147 132.765 11.9862C132.458 11.8578 132.138 11.7935 131.806 11.7935C131.447 11.7935 131.128 11.8578 130.846 11.9862C130.539 12.1147 130.271 12.2817 130.041 12.4873C129.81 12.7185 129.631 12.9754 129.503 13.2581C129.375 13.5407 129.311 13.8491 129.311 14.1831Z" fill="#FEFEFE"/>
<path fill-rule="evenodd" clip-rule="evenodd" d="M138.789 14.1831C138.789 13.3609 138.943 12.59 139.25 11.8706C139.582 11.1255 140.03 10.4831 140.593 9.94357C141.155 9.404 141.82 8.98004 142.588 8.67171C143.355 8.33769 144.174 8.17068 145.044 8.17068C145.888 8.17068 146.694 8.33769 147.461 8.67171C148.228 8.98004 148.894 9.404 149.456 9.94357C150.019 10.4831 150.467 11.1255 150.799 11.8706C151.132 12.59 151.298 13.3609 151.298 14.1831C151.298 15.0053 151.132 15.7889 150.799 16.5341C150.467 17.2792 150.019 17.9215 149.456 18.4611C148.894 19.0007 148.228 19.4246 147.461 19.733C146.694 20.0413 145.888 20.1955 145.044 20.1955C144.174 20.1955 143.355 20.0413 142.588 19.733C141.82 19.4246 141.155 19.0007 140.593 18.4611C140.03 17.9215 139.582 17.2792 139.25 16.5341C138.943 15.7889 138.789 15.0053 138.789 14.1831ZM142.511 14.1831C142.511 14.5171 142.575 14.8383 142.703 15.1466C142.856 15.4292 143.036 15.6862 143.24 15.9174C143.47 16.123 143.739 16.29 144.046 16.4184C144.353 16.5469 144.685 16.6111 145.044 16.6111C145.376 16.6111 145.696 16.5469 146.003 16.4184C146.31 16.29 146.578 16.123 146.809 15.9174C147.013 15.6862 147.192 15.4292 147.346 15.1466C147.474 14.8383 147.538 14.5171 147.538 14.1831C147.538 13.8491 147.474 13.5407 147.346 13.2581C147.192 12.9754 147.013 12.7185 146.809 12.4873C146.578 12.2817 146.31 12.1147 146.003 11.9862C145.696 11.8578 145.376 11.7935 145.044 11.7935C144.685 11.7935 144.353 11.8578 144.046 11.9862C143.739 12.1147 143.47 12.2817 143.24 12.4873C143.036 12.7185 142.856 12.9754 142.703 13.2581C142.575 13.5407 142.511 13.8491 142.511 14.1831Z" fill="#FEFEFE"/>
<path fill-rule="evenodd" clip-rule="evenodd" d="M152.258 19.9257V8.44046H155.557C156.683 8.44046 157.681 8.56893 158.55 8.82587C159.446 9.05712 160.188 9.41684 160.776 9.90502C161.39 10.3932 161.85 10.9842 162.157 11.6779C162.464 12.3973 162.618 13.2324 162.618 14.1831C162.618 15.1081 162.464 15.9303 162.157 16.6497C161.85 17.3691 161.39 17.9729 160.776 18.4611C160.188 18.9493 159.446 19.309 158.55 19.5403C157.681 19.7972 156.683 19.9257 155.557 19.9257H152.258ZM156.095 16.6497C156.964 16.6497 157.655 16.4441 158.167 16.033C158.653 15.6219 158.896 15.0053 158.896 14.1831C158.896 13.3352 158.653 12.7185 158.167 12.3331C157.655 11.922 156.964 11.7164 156.095 11.7164V16.6497Z" fill="#FEFEFE"/>
<path fill-rule="evenodd" clip-rule="evenodd" d="M117.608 32.3358C117.608 31.565 117.787 30.9098 118.145 30.3703C118.478 29.8307 118.938 29.381 119.527 29.0213C119.22 28.713 118.977 28.3404 118.798 27.9036C118.619 27.4925 118.529 27.0301 118.529 26.5162C118.503 25.9766 118.593 25.4756 118.798 25.0131C119.002 24.5763 119.284 24.1909 119.642 23.8568C120 23.5228 120.422 23.253 120.908 23.0475C121.394 22.8676 121.919 22.7777 122.481 22.7777C123.095 22.7777 123.658 22.8805 124.17 23.086C124.681 23.2659 125.116 23.5228 125.474 23.8568C125.858 24.2166 126.139 24.6277 126.318 25.0902C126.498 25.5526 126.587 26.0537 126.587 26.5932C126.587 27.2613 126.421 27.8394 126.088 28.3276C125.756 28.7901 125.346 29.2012 124.86 29.5609L126.587 31.0255C126.741 30.8713 126.881 30.73 127.009 30.6015C127.111 30.4473 127.214 30.3189 127.316 30.2161C127.418 30.0876 127.508 29.972 127.585 29.8692L130.156 32.0661C129.593 32.8369 128.94 33.5306 128.199 34.1473C127.892 34.4042 127.546 34.6612 127.163 34.9181C126.753 35.1493 126.318 35.3677 125.858 35.5733C125.398 35.7532 124.899 35.9073 124.362 36.0358C123.824 36.1642 123.262 36.2285 122.673 36.2285C121.803 36.2285 121.049 36.1257 120.409 35.9202C119.77 35.7146 119.245 35.4448 118.836 35.1108C118.427 34.7511 118.12 34.34 117.915 33.8775C117.71 33.3893 117.608 32.8754 117.608 32.3358ZM122.75 32.991C122.955 32.991 123.159 32.9653 123.364 32.914C123.543 32.8883 123.722 32.8497 123.901 32.7983L122.059 31.2182C121.752 31.4494 121.599 31.732 121.599 32.0661C121.599 32.3744 121.714 32.6056 121.944 32.7598C122.2 32.914 122.469 32.991 122.75 32.991ZM121.829 26.4776C121.829 26.6575 121.867 26.8245 121.944 26.9787C122.046 27.1328 122.213 27.3255 122.443 27.5568C122.724 27.3769 122.929 27.1971 123.057 27.0172C123.185 26.863 123.249 26.6832 123.249 26.4776C123.249 26.2464 123.185 26.0665 123.057 25.9381C122.929 25.8096 122.763 25.7454 122.558 25.7454C122.353 25.7454 122.174 25.8224 122.021 25.9766C121.893 26.1051 121.829 26.2721 121.829 26.4776Z" fill="#FEFEFE"/>
<path d="M111.584 25.3985L105.214 9.94358L98.4609 7.13008L78.5078 15.4164L80.081 19.1934L87.2565 16.2257L88.1007 15.8403L94.4703 13.2196L101.032 10.5217L109.358 30.7557L111.584 25.3985Z" fill="#DFB35A"/>
<path d="M68.4546 25.2443L74.7859 40.6607L81.2706 43.3586L101.416 34.9952L99.8807 31.2182L92.6669 34.1858L91.8228 34.5712L85.4915 37.2306L85.4531 37.192L78.8916 39.9284L70.6801 19.8871L68.4546 25.2443Z" fill="#DFB35A"/>
<path d="M99.6888 13.682L95.9284 15.2622L99.612 24.2037L96.2354 25.6297L99.6888 28.6359L101.185 27.9807L104.6 36.3056L84.4553 44.669L89.7889 46.9043L105.368 40.4295L108.015 33.9546L99.6888 13.682Z" fill="#DFB35A"/>
<path fill-rule="evenodd" clip-rule="evenodd" d="M84.8008 28.212C84.8008 27.3898 84.9926 26.696 85.3764 26.1308C85.7345 25.5912 86.2205 25.1287 86.8345 24.7433C86.5275 24.3836 86.2717 23.9853 86.0671 23.5485C85.8624 23.1117 85.7728 22.6235 85.7984 22.084C85.7984 21.5187 85.9008 21.0048 86.1054 20.5423C86.3101 20.0541 86.6042 19.6302 86.9879 19.2705C87.3716 18.9365 87.8193 18.6667 88.3309 18.4611C88.8425 18.2813 89.3926 18.1913 89.9809 18.1913C90.6204 18.1913 91.2088 18.2941 91.746 18.4997C92.2832 18.7052 92.7436 18.9878 93.1273 19.3476C93.5111 19.7073 93.8053 20.1312 94.0099 20.6194C94.2145 21.1076 94.3041 21.6343 94.2785 22.1996C94.2785 22.8933 94.0995 23.4971 93.7413 24.011C93.3832 24.5249 92.9483 24.9617 92.4367 25.3214L94.2401 26.863C94.432 26.7089 94.9692 26.0922 95.0075 26.0151L97.8854 28.5588C97.6168 28.9828 96.811 29.5609 96.0436 30.2161C95.6983 30.4859 95.2378 30.7557 94.8541 31.0255C94.432 31.2567 93.9715 31.4494 93.4727 31.6421C92.9867 31.822 92.4623 31.9761 91.8995 32.1046C91.3367 32.2331 90.7483 32.2973 90.1344 32.2973C89.2135 32.2973 88.4077 32.1945 87.717 31.989C87.0519 31.7834 86.5019 31.488 86.0671 31.1025C85.6322 30.7428 85.3124 30.3189 85.1078 29.8307C84.9031 29.3168 84.8008 28.7772 84.8008 28.212ZM90.2495 28.9057C90.4286 28.9057 90.6332 28.88 90.8635 28.8286C91.0681 28.8029 91.26 28.7644 91.439 28.713L89.4821 27.0172C89.1495 27.2741 88.9833 27.5825 88.9833 27.9422C88.9833 28.2762 89.1112 28.5203 89.367 28.6745C89.6228 28.8286 89.9169 28.9057 90.2495 28.9057ZM89.2902 22.0454C89.2902 22.2253 89.3286 22.4051 89.4053 22.585C89.4821 22.7649 89.6484 22.9704 89.9042 23.2017C90.2112 22.9961 90.4414 22.8162 90.5948 22.6621C90.7227 22.4822 90.7867 22.2767 90.7867 22.0454C90.7867 21.8142 90.7227 21.6343 90.5948 21.5059C90.4414 21.3774 90.2623 21.3131 90.0576 21.3131C89.8274 21.3131 89.6356 21.3774 89.4821 21.5059C89.3542 21.66 89.2902 21.8399 89.2902 22.0454Z" fill="#DFB35A"/>
<path d="M84.8007 24.3193C84.5704 23.6256 84.3786 22.6621 84.3786 21.9683C84.3786 21.5316 84.4169 21.1076 84.4937 20.6965L84.7623 19.8486L78.738 22.3923L75.323 14.0675L95.2377 5.8197L90.0192 3.62286L74.7474 9.94358L71.9846 16.6882L80.1961 36.691L83.9949 35.1494L80.3112 26.2079L84.8007 24.3193Z" fill="#DFB35A"/>
<path d="M131.422 24.6662H138.444V27.6724H135.221V28.9442H138.367V31.7963H135.221V36.1129H131.422V24.6662Z" fill="#DFB35A"/>
<path fill-rule="evenodd" clip-rule="evenodd" d="M139.787 24.6662H143.893C144.66 24.6662 145.363 24.7561 146.003 24.936C146.643 25.1415 147.205 25.437 147.691 25.8224C148.177 26.1821 148.548 26.6446 148.804 27.2099C149.086 27.7495 149.226 28.3918 149.226 29.137C149.226 29.7022 149.137 30.1776 148.958 30.563C148.804 30.9741 148.625 31.3081 148.42 31.565C148.165 31.8734 147.896 32.1303 147.615 32.3358L149.84 36.1129H145.389L143.586 33.2223V36.1129H139.787V24.6662ZM143.586 30.2932H143.777C144.238 30.2932 144.622 30.2032 144.929 30.0234C145.236 29.8178 145.389 29.4838 145.389 29.0213C145.389 28.5588 145.236 28.2377 144.929 28.0578C144.622 27.8523 144.238 27.7495 143.777 27.7495H143.586V30.2932Z" fill="#DFB35A"/>
<path d="M155.442 35.265C154.675 35.265 153.997 35.1622 153.409 34.9566C152.795 34.7768 152.27 34.507 151.835 34.1473C151.401 33.7876 151.068 33.3251 150.838 32.7598C150.608 32.1945 150.492 31.5393 150.492 30.7942V23.51H154.291V30.6401C154.291 31.0255 154.381 31.3338 154.56 31.565C154.739 31.7706 155.033 31.8734 155.442 31.8734C155.852 31.8734 156.133 31.7706 156.287 31.565C156.466 31.3338 156.555 31.0255 156.555 30.6401V23.51H160.392V30.7942C160.392 31.5393 160.277 32.1945 160.047 32.7598C159.817 33.3251 159.484 33.7876 159.049 34.1473C158.614 34.507 158.09 34.7768 157.476 34.9566C156.862 35.1622 156.184 35.265 155.442 35.265Z" fill="#DFB35A"/>
<path d="M161.927 24.6662H165.956V36.1129H161.927V24.6662Z" fill="#DFB35A"/>
<path d="M169.141 35.9972L173.093 32.2202V27.6724H175.28V24.6662H166.954V27.6724H169.141V35.9972Z" fill="#DFB35A"/>
<path d="M18.5334 26.9787L18.38 27.1328V31.4109C18.38 32.9525 17.6509 32.9525 17.3823 32.9525H9.13245C8.86385 32.9525 8.17317 32.9525 8.17317 31.4109C8.17317 30.7942 8.24992 29.9078 8.44177 28.6359V28.3661L5.44881 28.0964L5.41043 28.2891C5.21857 29.1755 5.14185 30.0619 5.14185 31.1026C5.14185 32.0275 5.25696 32.8754 5.52556 33.6463C5.83253 34.4556 6.21624 35.0337 6.6767 35.3035C7.09878 35.6504 7.78945 35.8431 8.86385 35.8816H17.2672C18.5334 35.8816 19.3392 35.6889 19.7997 35.3421C20.3369 34.9952 20.7206 34.4171 20.9892 33.6077C21.2578 32.7984 21.4113 31.488 21.4113 29.6765V26.9787H18.6485H18.5334Z" fill="#DFB35A"/>
<path d="M11.8183 26.7474C12.2788 26.7474 12.6625 26.5804 12.9694 26.2464C13.1997 25.9766 13.3532 25.6683 13.3532 25.3214V24.3964L11.8183 23.5485L11.7032 23.6256C10.5521 24.2037 10.4369 24.2808 10.3602 24.3579L10.2834 24.435V25.3214C10.2834 25.7454 10.4753 26.0922 10.7823 26.362C11.0892 26.6189 11.4346 26.7474 11.8183 26.7474Z" fill="#DFB35A"/>
<path d="M15.08 26.7474C15.5404 26.7474 15.9241 26.5804 16.2311 26.2464C16.4997 26.0151 16.6532 25.6683 16.6532 25.3214V24.3964L16.5381 24.3193C16.4613 24.2808 16.3462 24.2423 16.1544 24.1266L15.809 23.9339C15.6555 23.8312 15.4637 23.7284 15.2335 23.6256L15.1184 23.5485L14.0823 24.0881C13.8521 24.2166 13.7114 24.3065 13.6602 24.3579L13.5835 24.435V25.3214C13.5835 25.7454 13.7753 26.0922 14.1207 26.362C14.4021 26.6189 14.7218 26.7474 15.08 26.7474Z" fill="#DFB35A"/>
<path fill-rule="evenodd" clip-rule="evenodd" d="M30.3901 30.3703V36.9222C30.3901 38.3483 29.2774 39.6201 27.0518 40.7763C25.4019 41.5086 24.0205 41.894 22.7926 41.894H22.6775L22.524 41.7399L22.4856 41.6242V39.1191L22.7158 39.0034H22.7926C23.56 39.0034 24.5961 38.7337 25.9007 38.2326C26.31 38.0528 26.6553 37.8472 26.9367 37.616C27.3204 37.2691 27.3972 37.0764 27.3972 36.9993V35.8816C26.9751 35.8431 26.3995 35.766 25.4786 35.5733C23.9949 35.1622 23.074 34.4299 22.7158 33.3765C22.524 32.8754 22.4473 32.49 22.4473 32.1432V26.9787H22.7543C25.0182 26.9787 26.5146 27.0558 27.282 27.287C28.9704 27.6339 30.0064 28.5589 30.3518 29.9849L30.3901 30.3703ZM27.3588 32.8369V31.0255C27.3588 30.6401 27.2053 30.3446 26.8983 30.139C26.7832 30.0619 26.3995 29.9463 25.4402 29.9078V31.5265C25.4402 32.1432 25.6705 32.5286 26.0925 32.6442C26.246 32.7213 26.553 32.7984 27.3588 32.8369Z" fill="#DFB35A"/>
<path d="M43.5515 26.1693C44.2421 26.1693 45.0863 25.8995 45.0863 24.6662V23.7798L44.0503 23.2016L43.5131 22.9704L43.398 23.0475C42.605 23.4586 42.1701 23.7027 42.0933 23.7798L42.0166 23.8568V24.5891C42.0166 25.8995 42.8224 26.1693 43.5515 26.1693Z" fill="#DFB35A"/>
<path fill-rule="evenodd" clip-rule="evenodd" d="M47.3502 26.9787V32.3359C47.1456 33.7747 46.4037 34.7639 45.1247 35.3035C44.6642 35.4577 44.0887 35.6118 43.2829 35.7275C42.3108 35.8302 41.1852 35.8816 39.9062 35.8816H36.6062V36.9222C36.6062 37.8087 36.3376 38.6951 35.7237 39.6586C34.6109 41.1232 33.1528 41.894 31.4261 41.9326H31.1575V39.0034H31.5028C31.9889 39.0034 32.4621 38.8107 32.9226 38.4253C33.383 38.0014 33.6132 37.5004 33.6132 36.9222V26.9787H36.6062V32.9525H39.3689V30.4859C39.4073 29.9849 39.5608 29.4453 39.8294 28.9057C40.1108 28.4689 40.4817 28.1221 40.9422 27.8651C41.4026 27.5953 41.9782 27.4026 42.8607 27.2485C43.82 27.0558 45.0863 26.9787 46.7746 26.9787H47.3502ZM42.8607 30.1776C42.6561 30.2804 42.5282 30.4602 42.477 30.7171L42.4387 30.9484V32.8369C43.5514 32.7984 43.8968 32.6442 43.9735 32.5286C44.2037 32.2973 44.3189 32.0275 44.3189 31.7192V29.9463C43.4363 29.9463 43.0142 30.1005 42.8607 30.1776Z" fill="#DFB35A"/>
<path d="M107.977 43.5127L90.0576 50.9511L72.1765 43.5127H7.90454L12.9312 48.523H72.1765L90.0576 56L107.977 48.5616L108.015 48.523H167.069L172.057 43.5127H108.015H107.977Z" fill="#DFB35A"/>
</svg>
