<svg width="27" height="26" viewBox="0 0 27 26" fill="none" xmlns="http://www.w3.org/2000/svg">
<g clip-path="url(#clip0_185_5365)">
<path d="M18.8749 3.05805C18.9307 3.05805 18.9876 3.05805 19.0435 3.0616C20.3612 3.14082 21.7608 3.8741 22.8851 5.07305C24.05 6.31566 24.764 7.90359 24.8422 9.4316C24.8654 10.0002 24.8128 10.5694 24.6858 11.1241C24.6081 11.4385 24.3745 12.2139 24.1241 12.7141L24.0921 12.7715C23.9653 12.9994 23.9311 13.2674 23.9965 13.52C24.0619 13.7725 24.222 13.9902 24.4435 14.1278C24.5513 14.1955 24.6718 14.2401 24.7977 14.2588C24.9235 14.2775 25.0518 14.2699 25.1745 14.2365C25.2973 14.2031 25.4117 14.1446 25.5107 14.0647C25.6097 13.9848 25.6911 13.8853 25.7496 13.7724L25.7542 13.7637C26.2432 12.8852 26.5718 11.5512 26.5698 11.5517C26.735 10.8278 26.8033 10.0851 26.7729 9.34324C26.5637 5.16242 22.9191 1.35078 19.1481 1.13344C19.0572 1.12937 18.9678 1.12734 18.8779 1.12734C17.5282 1.12734 16.2942 1.60824 15.2415 2.4375L13.8094 3.65625L12.3774 2.4375C11.9656 2.11088 11.515 1.83644 11.0358 1.62043C10.314 1.29495 9.53121 1.12686 8.73944 1.12734C8.65058 1.12734 8.56069 1.12734 8.47081 1.13344C4.69675 1.3518 1.05218 5.16344 0.842959 9.34375C0.812578 10.0857 0.880883 10.8283 1.04608 11.5522C1.29999 12.5724 1.86112 13.7632 1.86163 13.7643C2.98187 15.9478 4.80999 17.7719 6.43855 19.2557C8.14175 20.8056 9.48542 21.8248 11.6487 23.4523L13.8064 24.9844H13.8485L15.3212 23.9398C15.5119 23.8046 15.647 23.6048 15.7015 23.3774C15.756 23.1501 15.726 22.9107 15.6173 22.7038C15.5532 22.5814 15.4636 22.4742 15.3545 22.3894C15.2454 22.3046 15.1194 22.2442 14.985 22.2124C14.8506 22.1805 14.7109 22.1779 14.5754 22.2046C14.4398 22.2314 14.3116 22.287 14.1994 22.3676L13.8303 22.6342L12.7887 21.8943C10.6559 20.2907 9.36354 19.3075 7.73956 17.8318C6.24151 16.4673 4.57944 14.818 3.59632 12.9177C3.45312 12.608 3.09206 11.764 2.92499 11.1064C2.8009 10.5581 2.74967 9.99582 2.77265 9.43414C2.85187 7.90613 3.56483 6.3182 4.72976 5.07558C5.85405 3.87613 7.25308 3.14336 8.57034 3.06414C8.62671 3.06414 8.68308 3.06059 8.73843 3.06059C9.25862 3.06083 9.77285 3.17143 10.2471 3.38508C10.5708 3.53189 10.8758 3.71686 11.1556 3.93605L12.5551 5.12891C12.9042 5.42612 13.3477 5.58934 13.8061 5.58934C14.2646 5.58934 14.7081 5.42612 15.0571 5.12891L16.4592 3.93504C17.2072 3.35156 18.0197 3.05805 18.8749 3.05805Z" fill="#DFB35A"/>
<path d="M22.1625 14.2467L20.9957 13.0798C20.9428 13.0269 20.8722 12.9999 20.7993 13C20.725 12.9993 20.6529 13.0269 20.6 13.0798L19.4572 14.2226C19.3502 14.3296 19.3502 14.5037 19.4572 14.6106L19.6046 14.758C19.7079 14.8613 19.8883 14.8613 19.9917 14.758L20.4292 14.3196V15.9307C20.4292 15.9356 20.432 15.9396 20.4329 15.9442C20.4448 16.0846 20.5625 16.1957 20.7061 16.1957H20.9143C21.0657 16.1957 21.1901 16.0728 21.1901 15.9215V15.7416C21.1901 15.7408 21.1901 15.7403 21.1901 15.7396V14.3435L21.6277 14.782C21.7347 14.8891 21.9084 14.8891 22.0154 14.782L22.1625 14.6348C22.2695 14.5277 22.2695 14.3535 22.1625 14.2467Z" fill="#DFB35A"/>
<path d="M22.1624 21.1052L22.0152 20.9576C21.9118 20.8541 21.7314 20.8541 21.6279 20.9576L21.1902 21.3961V20.0061C21.1902 20.0053 21.1902 20.0049 21.1902 20.0041V19.8242C21.1902 19.6729 21.0658 19.5439 20.9146 19.5439H20.7062C20.5628 19.5439 20.4451 19.6579 20.4331 19.7984C20.4322 19.8031 20.4294 19.8102 20.4294 19.8151V21.4202L19.9919 20.9817C19.8885 20.8783 19.7077 20.8783 19.6043 20.9817L19.457 21.1291C19.3501 21.2361 19.3503 21.4102 19.4573 21.5172L20.6002 22.6599C20.6517 22.7116 20.7205 22.7397 20.7916 22.7397H20.8018C20.8754 22.7397 20.9441 22.7117 20.9957 22.6599L22.1624 21.4932C22.2695 21.3862 22.2695 21.2121 22.1624 21.1052Z" fill="#DFB35A"/>
<path d="M18.8547 17.4892H18.8312H18.6739C18.6733 17.4892 18.6728 17.4892 18.6722 17.4892H17.2888L17.7274 17.0531C17.7791 17.0015 17.8075 16.9337 17.8075 16.8603C17.8075 16.7868 17.7791 16.7185 17.7274 16.6669L17.58 16.5199C17.4729 16.4128 17.2988 16.413 17.1919 16.52L16.0251 17.6868C15.9722 17.7396 15.9439 17.8105 15.9454 17.8831C15.9439 17.9588 15.9722 18.0296 16.0251 18.0824L17.1679 19.2253C17.2214 19.2788 17.2916 19.3056 17.3619 19.3056C17.4322 19.3056 17.5025 19.2788 17.556 19.2253L17.7033 19.078C17.755 19.0264 17.7835 18.9574 17.7835 18.884C17.7835 18.8105 17.7551 18.7408 17.7033 18.6893L17.2649 18.2502H18.863C18.8678 18.2502 18.8757 18.249 18.8803 18.2481C19.0208 18.2362 19.1355 18.1201 19.1355 17.9766V17.768C19.1355 17.6169 19.006 17.4892 18.8547 17.4892Z" fill="#DFB35A"/>
<path d="M25.5947 17.6869L24.4279 16.5202C24.3209 16.4131 24.1468 16.4131 24.0398 16.5202L23.8926 16.6675C23.8409 16.7191 23.8124 16.7881 23.8124 16.8615C23.8124 16.9349 23.8408 17.0015 23.8926 17.0531L24.3311 17.4892H22.9389C22.9382 17.4892 22.9376 17.4892 22.937 17.4892H22.7572C22.6058 17.4892 22.4844 17.6168 22.4844 17.768V17.9766C22.4844 18.1201 22.5945 18.2361 22.7351 18.248C22.7397 18.249 22.7431 18.2502 22.7479 18.2502H24.355L23.9165 18.6892C23.8648 18.7408 23.8363 18.8103 23.8363 18.8835C23.8363 18.9571 23.8648 19.0262 23.9165 19.0778L24.0639 19.2252C24.1173 19.2787 24.1876 19.3056 24.2579 19.3056C24.3282 19.3056 24.3984 19.2788 24.4519 19.2253L25.5948 18.0824C25.6475 18.0297 25.6758 17.9588 25.6745 17.8861C25.6757 17.8105 25.6474 17.7396 25.5947 17.6869Z" fill="#DFB35A"/>
<path d="M20.8101 17.1084C20.3903 17.1084 20.0488 17.4499 20.0488 17.8697C20.0488 18.2895 20.3903 18.6311 20.8101 18.6311C21.2298 18.6311 21.5714 18.2895 21.5714 17.8697C21.5714 17.4499 21.2298 17.1084 20.8101 17.1084Z" fill="#DFB35A"/>
</g>
<defs>
<clipPath id="clip0_185_5365">
<rect width="26" height="26" fill="white" transform="translate(0.779297)"/>
</clipPath>
</defs>
</svg>
