<svg width="28" height="27" viewBox="0 0 28 27" fill="none" xmlns="http://www.w3.org/2000/svg">
<path d="M16.3043 5.4C16.3043 4.86294 16.091 4.34787 15.7112 3.96811C15.3314 3.58835 14.8164 3.375 14.2793 3.375C13.7422 3.375 13.2272 3.58835 12.8474 3.96811C12.4676 4.34787 12.2543 4.86294 12.2543 5.4H10.9043C10.9043 4.5049 11.2599 3.64645 11.8928 3.01352C12.5257 2.38058 13.3842 2.025 14.2793 2.025C15.1744 2.025 16.0328 2.38058 16.6658 3.01352C17.2987 3.64645 17.6543 4.5049 17.6543 5.4H23.7293C23.9083 5.4 24.08 5.47112 24.2066 5.5977C24.3332 5.72429 24.4043 5.89598 24.4043 6.075C24.4043 6.25402 24.3332 6.42571 24.2066 6.5523C24.08 6.67889 23.9083 6.75 23.7293 6.75H22.9814L21.2318 21.9105C21.1556 22.5685 20.8402 23.1755 20.3456 23.6161C19.851 24.0567 19.2117 24.3001 18.5493 24.3H10.0092C9.34687 24.3001 8.70756 24.0567 8.21296 23.6161C7.71836 23.1755 7.40297 22.5685 7.3268 21.9105L5.57585 6.75H4.8293C4.67131 6.75005 4.51831 6.69469 4.39695 6.59355C4.27558 6.49241 4.19353 6.35191 4.1651 6.1965L4.1543 6.075C4.1543 5.89598 4.22541 5.72429 4.352 5.5977C4.47859 5.47112 4.65028 5.4 4.8293 5.4H16.3043ZM21.6206 6.75H6.93665L8.66735 21.7553C8.70545 22.0844 8.86324 22.388 9.11068 22.6083C9.35812 22.8286 9.67794 22.9502 10.0092 22.95H18.5493C18.8804 22.9499 19.1999 22.8281 19.4471 22.6078C19.6942 22.3876 19.8518 22.0841 19.8899 21.7553L21.6206 6.75ZM12.2543 10.125C12.585 10.125 12.8618 10.3343 12.9185 10.6097L12.9293 10.7163V18.9851C12.9293 19.3104 12.6269 19.575 12.2543 19.575C11.9235 19.575 11.6468 19.3658 11.5901 19.0904L11.5793 18.9837V10.7177C11.5793 10.391 11.8817 10.1264 12.2543 10.1264V10.125ZM16.3043 10.125C16.635 10.125 16.9118 10.3343 16.9685 10.6097L16.9793 10.7163V18.9851C16.9793 19.3104 16.6769 19.575 16.3043 19.575C15.9735 19.575 15.6968 19.3658 15.6401 19.0904L15.6293 18.9837V10.7177C15.6293 10.391 15.9317 10.1264 16.3043 10.1264V10.125Z" fill="#BDBDBD"/>
</svg>
