<svg width="30" height="30" viewBox="0 0 30 30" fill="none" xmlns="http://www.w3.org/2000/svg">
<path fill-rule="evenodd" clip-rule="evenodd" d="M20 3.75H10C6.54822 3.75 3.75 6.54822 3.75 10V20C3.75 23.4517 6.54822 26.25 10 26.25H20C23.4517 26.25 26.25 23.4517 26.25 20V10C26.25 6.54822 23.4517 3.75 20 3.75ZM24.0625 20C24.0556 22.2408 22.2408 24.0556 20 24.0625H10C7.75919 24.0556 5.94436 22.2408 5.9375 20V10C5.94436 7.75919 7.75919 5.94436 10 5.9375H20C22.2408 5.94436 24.0556 7.75919 24.0625 10V20ZM20.9375 10.3125C21.6279 10.3125 22.1875 9.75285 22.1875 9.0625C22.1875 8.37215 21.6279 7.8125 20.9375 7.8125C20.2471 7.8125 19.6875 8.37215 19.6875 9.0625C19.6875 9.75285 20.2471 10.3125 20.9375 10.3125ZM15 9.375C11.8934 9.375 9.375 11.8934 9.375 15C9.375 18.1066 11.8934 20.625 15 20.625C18.1066 20.625 20.625 18.1066 20.625 15C20.6284 13.5071 20.0368 12.0745 18.9811 11.0188C17.9255 9.96324 16.4929 9.37168 15 9.375ZM11.5625 15C11.5625 16.8985 13.1015 18.4375 15 18.4375C16.8985 18.4375 18.4375 16.8985 18.4375 15C18.4375 13.1015 16.8985 11.5625 15 11.5625C13.1015 11.5625 11.5625 13.1015 11.5625 15Z" fill="#4E7F51" stroke="#4E7F51" stroke-width="0.75"/>
</svg>
