<svg width="33" height="25" viewBox="0 0 33 25" fill="none" xmlns="http://www.w3.org/2000/svg">
<mask id="mask0_56_9900" style="mask-type:luminance" maskUnits="userSpaceOnUse" x="0" y="0" width="33" height="25">
<path d="M0.246582 0.148102H32.9412V24.669H0.246582V0.148102Z" fill="white"/>
</mask>
<g mask="url(#mask0_56_9900)">
<path fill-rule="evenodd" clip-rule="evenodd" d="M0.246582 0.148102V24.669H32.9412V0.148102H0.246582Z" fill="#2E42A5"/>
<mask id="mask1_56_9900" style="mask-type:luminance" maskUnits="userSpaceOnUse" x="0" y="0" width="33" height="25">
<path fill-rule="evenodd" clip-rule="evenodd" d="M0.246582 0.148102V24.669H32.9412V0.148102H0.246582Z" fill="white"/>
</mask>
<g mask="url(#mask1_56_9900)">
<mask id="mask2_56_9900" style="mask-type:luminance" maskUnits="userSpaceOnUse" x="0" y="0" width="33" height="25">
<path d="M0.246582 0.148102H32.9412V24.669H0.246582V0.148102Z" fill="white"/>
</mask>
<g mask="url(#mask2_56_9900)">
<path d="M-3.39453 22.9172L3.80001 25.9599L33.1038 3.4562L36.8987 -1.06534L29.2053 -2.08231L17.253 7.61519L7.63253 14.1491L-3.39453 22.9172Z" fill="white"/>
<path d="M-2.40967 25.049L1.25561 26.8147L35.5359 -1.48544H30.3895L-2.40967 25.049Z" fill="#F50100"/>
<path d="M36.5814 22.9172L29.3868 25.9599L0.0830423 3.4562L-3.71191 -1.06534L3.98161 -2.08231L15.9339 7.61519L25.5543 14.1491L36.5814 22.9172Z" fill="white"/>
<path d="M36.3358 24.4472L32.6706 26.2129L18.0737 14.0962L13.7459 12.7424L-4.07715 -1.0498H1.06934L18.8824 12.415L23.614 14.0384L36.3358 24.4472Z" fill="#F50100"/>
<path fill-rule="evenodd" clip-rule="evenodd" d="M20.4533 -1.89532H12.7338V8.32174H-1.76904V16.4954H12.7338V26.7124H20.4533V16.4954H35.0124V8.32174H20.4533V-1.89532Z" fill="#F50100"/>
<mask id="mask3_56_9900" style="mask-type:luminance" maskUnits="userSpaceOnUse" x="-2" y="-2" width="38" height="29">
<path fill-rule="evenodd" clip-rule="evenodd" d="M20.4533 -1.89532H12.7338V8.32174H-1.76904V16.4954H12.7338V26.7124H20.4533V16.4954H35.0124V8.32174H20.4533V-1.89532Z" fill="white"/>
</mask>
<g mask="url(#mask3_56_9900)">
<path d="M12.7338 -1.89531V-3.93872H10.6903V-1.89531H12.7338ZM20.4533 -1.89531H22.4967V-3.93872H20.4533V-1.89531ZM12.7338 8.32175V10.3652H14.7772V8.32175H12.7338ZM-1.76909 8.32175V6.27834H-3.8125V8.32175H-1.76909ZM-1.76909 16.4954H-3.8125V18.5388H-1.76909V16.4954ZM12.7338 16.4954H14.7772V14.452H12.7338V16.4954ZM12.7338 26.7125H10.6903V28.7559H12.7338V26.7125ZM20.4533 26.7125V28.7559H22.4967V26.7125H20.4533ZM20.4533 16.4954V14.452H18.4098V16.4954H20.4533ZM35.0124 16.4954V18.5388H37.0558V16.4954H35.0124ZM35.0124 8.32175H37.0558V6.27834H35.0124V8.32175ZM20.4533 8.32175H18.4098V10.3652H20.4533V8.32175ZM12.7338 0.148104H20.4533V-3.93872H12.7338V0.148104ZM14.7772 8.32175V-1.89531H10.6903V8.32175H14.7772ZM-1.76909 10.3652H12.7338V6.27834H-1.76909V10.3652ZM0.27432 16.4954V8.32175H-3.8125V16.4954H0.27432ZM12.7338 14.452H-1.76909V18.5388H12.7338V14.452ZM14.7772 26.7125V16.4954H10.6903V26.7125H14.7772ZM20.4533 24.6691H12.7338V28.7559H20.4533V24.6691ZM18.4098 16.4954V26.7125H22.4967V16.4954H18.4098ZM35.0124 14.452H20.4533V18.5388H35.0124V14.452ZM32.9689 8.32175V16.4954H37.0558V8.32175H32.9689ZM20.4533 10.3652H35.0124V6.27834H20.4533V10.3652ZM18.4098 -1.89531V8.32175H22.4967V-1.89531H18.4098Z" fill="white"/>
</g>
</g>
</g>
</g>
</svg>
