<svg width="25" height="24" viewBox="0 0 25 24" fill="none" xmlns="http://www.w3.org/2000/svg">
<path fill-rule="evenodd" clip-rule="evenodd" d="M2.14185 3C2.14185 2.44772 2.58956 2 3.14185 2H10.1418C10.6941 2 11.1418 2.44772 11.1418 3V10C11.1418 10.5523 10.6941 11 10.1418 11H3.14185C2.58956 11 2.14185 10.5523 2.14185 10V3ZM4.14185 4V9H9.14185V4H4.14185Z" fill="#4E7F51"/>
<path fill-rule="evenodd" clip-rule="evenodd" d="M13.1418 3C13.1418 2.44772 13.5896 2 14.1418 2H21.1418C21.6941 2 22.1418 2.44772 22.1418 3V10C22.1418 10.5523 21.6941 11 21.1418 11H14.1418C13.5896 11 13.1418 10.5523 13.1418 10V3ZM15.1418 4V9H20.1418V4H15.1418Z" fill="#4E7F51"/>
<path fill-rule="evenodd" clip-rule="evenodd" d="M13.1418 14C13.1418 13.4477 13.5896 13 14.1418 13H21.1418C21.6941 13 22.1418 13.4477 22.1418 14V21C22.1418 21.5523 21.6941 22 21.1418 22H14.1418C13.5896 22 13.1418 21.5523 13.1418 21V14ZM15.1418 15V20H20.1418V15H15.1418Z" fill="#4E7F51"/>
<path fill-rule="evenodd" clip-rule="evenodd" d="M2.14185 14C2.14185 13.4477 2.58956 13 3.14185 13H10.1418C10.6941 13 11.1418 13.4477 11.1418 14V21C11.1418 21.5523 10.6941 22 10.1418 22H3.14185C2.58956 22 2.14185 21.5523 2.14185 21V14ZM4.14185 15V20H9.14185V15H4.14185Z" fill="#4E7F51"/>
</svg>
